/* XPM */
static char *Dungeon_Tileset_resized[] = {
/* columns rows colors chars-per-pixel */
"32 32 233 2 ",
"   c None",
".  c #210D14",
"X  c #210E14",
"o  c #210E15",
"O  c #210F16",
"+  c #220F16",
"@  c #231017",
"#  c #241219",
"$  c #271319",
"%  c #25131A",
"&  c #27171E",
"*  c #28141B",
"=  c #2C161A",
"-  c #2A161D",
";  c #2E171C",
":  c #2E181D",
">  c #2C181E",
",  c #2D181E",
"<  c #2F191E",
"1  c #351B1C",
"2  c #351C1E",
"3  c #351D1F",
"4  c #361D1E",
"5  c #3A1F1F",
"6  c #3B201F",
"7  c #2A1820",
"8  c #2D1920",
"9  c #2D1A20",
"0  c #3A2020",
"q  c #3B2020",
"w  c #3B2120",
"e  c #3B2121",
"r  c #36272F",
"t  c #3A242A",
"y  c #3F2628",
"u  c #372830",
"i  c #392B33",
"p  c #392D36",
"a  c #3A2F37",
"s  c #3C2D36",
"d  c #3D2F38",
"f  c #3D3039",
"g  c #3E3038",
"h  c #3E3039",
"j  c #3E3139",
"k  c #3F313A",
"l  c #3F323A",
"z  c #3E323B",
"x  c #3F323B",
"c  c #3F333B",
"v  c #442929",
"b  c #4B2F2F",
"n  c #452F34",
"m  c #442F35",
"M  c #452F35",
"N  c #4F3333",
"B  c #4E3435",
"V  c #4F3435",
"C  c #40323B",
"Z  c #40333B",
"A  c #443138",
"S  c #40343E",
"D  c #41353E",
"F  c #42353E",
"G  c #42363E",
"H  c #43373F",
"J  c #4C3539",
"K  c #503535",
"L  c #563A39",
"P  c #593E3E",
"I  c #633D32",
"U  c #643F34",
"Y  c #644037",
"T  c #654037",
"R  c #664137",
"E  c #68443A",
"W  c #704536",
"Q  c #704636",
"!  c #704738",
"~  c #714738",
"^  c #714838",
"/  c #704839",
"(  c #714839",
")  c #754C3D",
"_  c #433841",
"`  c #433943",
"'  c #443840",
"]  c #463840",
"[  c #443A43",
"{  c #433B44",
"}  c #433B45",
"|  c #443B44",
" . c #453B44",
".. c #433C45",
"X. c #433C46",
"o. c #453C44",
"O. c #453C45",
"+. c #443D47",
"@. c #453E47",
"#. c #473F47",
"$. c #463E48",
"%. c #473F48",
"&. c #563E41",
"*. c #573E42",
"=. c #4B414A",
"-. c #574546",
";. c #5C4141",
":. c #5E4241",
">. c #5F4241",
",. c #5F4341",
"<. c #5D4242",
"1. c #5F4342",
"2. c #5E4343",
"3. c #58484F",
"4. c #514750",
"5. c #564E58",
"6. c #5C5158",
"7. c #59535D",
"8. c #5A545E",
"9. c #5B555F",
"0. c #604342",
"q. c #614442",
"w. c #614443",
"e. c #724D43",
"r. c #734E43",
"t. c #744F44",
"y. c #7A5142",
"u. c #7B5244",
"i. c #7C5244",
"p. c #7C5344",
"a. c #7D5344",
"s. c #7D5345",
"d. c #7D5444",
"f. c #7D5445",
"g. c #7E5444",
"h. c #7E5445",
"j. c #7C5546",
"k. c #6F5A5C",
"l. c #605963",
"z. c #605F69",
"x. c #746265",
"c. c #736F7A",
"v. c #74707C",
"b. c #75717C",
"n. c #75717D",
"m. c #76727E",
"M. c #77737E",
"N. c #77737F",
"B. c #77747F",
"V. c #78737F",
"C. c #8B5B45",
"Z. c #8C5C45",
"A. c #8D5C46",
"S. c #8D5D46",
"D. c #8D6B5D",
"F. c #896D65",
"G. c #8B7067",
"H. c #98786A",
"J. c #717580",
"K. c #777480",
"L. c #777481",
"P. c #787480",
"I. c #787580",
"U. c #787581",
"Y. c #7A7780",
"T. c #747883",
"R. c #757A85",
"E. c #7D7883",
"W. c #7C7985",
"Q. c #7C7C88",
"!. c #7C7D89",
"~. c #7D7D89",
"^. c #7E7C88",
"/. c #7C7D8A",
"(. c #7D7E8A",
"). c #807F8C",
"_. c #81818D",
"`. c #82818D",
"'. c #82828E",
"]. c #8D8A8E",
"[. c #868895",
"{. c #8C8993",
"}. c #8C8C98",
"|. c #88909C",
" X c #88909D",
".X c #89919D",
"XX c #89919E",
"oX c #8B98A6",
"OX c #8C98A5",
"+X c #8F98A5",
"@X c #8E99A6",
"#X c #8D9AA7",
"$X c #8E9AA6",
"%X c #8F9AA6",
"&X c #8E9AA7",
"*X c #8E9BA7",
"=X c #8D9AA8",
"-X c #8E9BA8",
";X c #8F9BA8",
":X c #9296A3",
">X c #919BA7",
",X c #9598A5",
"<X c #9599A6",
"1X c #9599A7",
"2X c #959AA7",
"3X c #929CA9",
"4X c #949EAB",
"5X c #989EAC",
"6X c #999EAC",
"7X c #9AA0AD",
"8X c #9AA0AE",
"9X c #9BA2AF",
"0X c #96A4B1",
"qX c #97A5B2",
"wX c #9CA2B0",
"eX c #9EA7B1",
"rX c #9DAAB7",
"tX c #9FADB9",
"yX c #A0A1A8",
"uX c #A5ABB2",
"iX c #AAAEB3",
"pX c #A0ABB9",
"aX c #A2AEBC",
"sX c #A6B3C1",
"dX c #A7B7C5",
"fX c #A9B9C7",
"gX c #A8BAC8",
"hX c #A9BBC9",
"jX c #AABBC9",
"kX c #ABBCCA",
"lX c #ABBDCB",
"zX c #ADC1CF",
"xX c #B2C7D6",
/* pixels */
"    % # @ + + + + + + + + + + + + + + + + + + + + + + @ # %     ",
"    @ 7 u k Z x k h g j l Z Z Z Z Z Z l j g h k x Z k u 7 @     ",
"% @ o r l.N.I.B.m.b.v.n.N.P.P.K.K.P.P.N.n.v.b.m.B.I.N.l.r o @ % ",
"# 7 r 5.[.1X`.^.}.,X6X:X).K.K.L.L.K.K.).:X6X,X}.^.`.1X[.5.r 7 # ",
"@ u l.[.aX>X7.4.W.7XsX+X7.d f z z f d 7.+XsX7XW.4.7.>XaX[.l.u @ ",
"+ k M.1X3XJ.p i c.wXkX%X=.= 1 6 6 1 = =.%XkXwXc.i p J.3X1XM.k + ",
"+ C B.`.9.a & s v.9XjX4X6.b I Q Q I b 6.4XjX9Xv.s & a 9.`.B.C + ",
"O F ~.(.c . * ] V.8XfXrXY.x.G.H.H.G.x.Y.rXfX8XV.] * . c (.~.F O ",
"o o.|..X[ $ t 3.E.5XdXhXtXeXuXiXiXuXeXtXhXdX5XE.3.t $ [ .X|.o.o ",
"X %.$X;X%.< N k.{.pXlXgX0XOXOXoXoXOXOX0XgXlXpX{.k.N < %.;X$X%.X ",
"X #.$X-X$.4 U F.yXzXxXqXz.{ } +.+.} { z.qXxXzXyXF.U 4 $.-X$X#.X ",
"X #.@X&X@.5 W D.].=X#XT.H ; 2 0 0 2 ; H T.#X=X].D.W 5 @.&X@X#.X ",
"X #.@X&X@.w ~ j.-.X..._ A V T ! ! T V A _ ..X.-.j.~ w @.&X@X#.X ",
"X #.@X&X@.e ( ) v , 3 y J w.h.S.S.h.w.J y 3 , v ) ( e @.&X@X#.X ",
"X #.@X&X@.w ! y.L B Y E P 1.s.A.A.s.1.P E Y B L y.! w @.&X@X#.X ",
"X #.@X&X@.q ! f.0.0.h.h.,.:.u.C.C.u.:.,.h.h.0.0.f.! q @.&X@X#.X ",
"X #.@X&X@.q ! f.0.0.g.d.,.:.u.C.C.u.:.,.d.g.0.0.f.! q @.&X@X#.X ",
"X #.$X*X$.q ! f.1.>.p.p.>.:.u.C.C.u.:.>.p.p.>.1.f.! q $.*X$X#.X ",
"X %.$X-X$.q ! f.1.>.p.p.>.:.u.C.C.u.:.>.p.p.>.1.f.! q $.-X$X%.X ",
"o  .|. X| w ! f.1.>.p.p.>.:.u.C.C.u.:.>.p.p.>.1.f.! w |  X|. .o ",
"O D Q.!.S e / f.1.>.p.p.>.:.u.C.C.u.:.>.p.p.>.1.f./ e S !.Q.D O ",
"O D !./.S e ( h.0.>.a.a.>.:.i.Z.Z.i.:.>.a.a.>.0.h.( e S /.!.D O ",
"o o..XXX| e ^ h.0.>.a.a.>.:.p.Z.Z.p.:.>.a.a.>.0.h.^ e | XX.Xo.o ",
"o O..XXX` 4 R t.<.;.r.r.;.;.e.g.g.e.;.;.r.r.;.<.t.R 4 ` XX.XO.o ",
"O G (./.z : K 2.*.&.<.<.&.&.<.q.q.<.&.&.<.<.&.*.2.K : z /.(.G O ",
"+ C B._.8.' A n M M m m M M M m m M M M m m M M n A ' 8._.B.C + ",
"+ k M.<X3XR.' - > 9 8 8 9 9 8 8 8 8 9 9 8 8 9 > - ' R.3X<XM.k + ",
"@ u l.[.aX3X8.d h x x x x x x x x x x x x x x h d 8.3XaX[.l.u @ ",
"# 7 r 5.[.2X'.K.K.U.U.U.U.U.U.U.U.U.U.U.U.U.U.K.K.'.2X[.5.r 7 # ",
"% @ o r l.N.I.P.P.K.K.K.K.K.K.K.K.K.K.K.K.K.K.P.P.I.N.l.r o @ % ",
"    @ 7 u k C Z Z Z Z Z Z Z Z Z Z Z Z Z Z Z Z Z Z C k u 7 @     ",
"    % # @ + + + + + + + + + + + + + + + + + + + + + + @ # %     "
};
