/* XPM */
static char *_d3b45125f13447f925203296e52c59d0wWJAS6FAWRA9sJN[] = {
/* columns rows colors chars-per-pixel */
"32 32 6 1 ",
"  c None",
". c #1A3C3D",
"X c #A32732",
"o c #E43D44",
"O c #F6757A",
"+ c white",
/* pixels */
"                                ",
"                                ",
"                                ",
"                                ",
"                                ",
"         .               X      ",
"        ..    Xooo      XXo     ",
"        .    XooOOO     XXXo    ",
"     ...     XoOXXXoo    XXo    ",
"   ..   ..   ooXXXXoo           ",
"  .       ...oXXXOOoO           ",
"         .  .XooOoOoO           ",
"             XooooOO            ",
"              Xoooo             ",
"               XXO              ",
"                                ",
"                                ",
"                                ",
"                                ",
"               ..               ",
"              ...    oooo       ",
"              ...   ooooooO     ",
"              ..   oOooooOO     ",
"              .   oooOooXXXO    ",
"           . .....oooOoXXXXX    ",
"         ....  . .oooooOOOXX    ",
"      ...         XXoooOOOO     ",
"     .   ..       XXXooooOOX    ",
"         ..        XXoooooOX    ",
"          ..        XXoooXX     ",
"                     XXoo       ",
"                                "
};
