/* XPM */
static char *b3b4379d17904ee0fd04c4ce20b11f0anHElz8QymePBqtTQ[] = {
/* columns rows colors chars-per-pixel */
"32 32 164 2 ",
"   c #3D2C11",
".  c #362F19",
"X  c #34301D",
"o  c #1D3A39",
"O  c #2E3324",
"+  c #2B3427",
"@  c #2C3426",
"#  c #27362D",
"$  c #333A2D",
"%  c #353A2C",
"&  c #243730",
"*  c #293B33",
"=  c #2D3F35",
"-  c #213D3A",
";  c #333F33",
":  c #313F34",
">  c #562B19",
",  c #5C2F1B",
"<  c #4D381C",
"1  c #66301D",
"2  c #433923",
"3  c #443922",
"4  c #413924",
"5  c #5D3520",
"6  c #6D2A21",
"7  c #752E23",
"8  c #6F3125",
"9  c #693923",
"0  c #6B3F25",
"q  c #6C3F25",
"w  c #67372F",
"e  c #763026",
"r  c #703D26",
"t  c #793928",
"y  c #64393A",
"u  c #743B33",
"i  c #703D3D",
"p  c #3F412E",
"a  c #3B4030",
"s  c #3E4A3C",
"d  c #43412D",
"f  c #4C4329",
"g  c #514327",
"h  c #5E4522",
"j  c #504328",
"k  c #434C3C",
"l  c #4C5234",
"z  c #505333",
"x  c #595130",
"c  c #5F5A30",
"v  c #59543C",
"b  c #5E563C",
"n  c #6E402D",
"m  c #774428",
"M  c #7F432A",
"N  c #7E4C2D",
"B  c #615B2F",
"V  c #665D2E",
"C  c #70592B",
"Z  c #745F3B",
"A  c #715E3C",
"S  c #78652B",
"D  c #79613B",
"F  c #802927",
"G  c #862D2A",
"H  c #99272F",
"J  c #902D2B",
"K  c #853327",
"L  c #81362A",
"P  c #8B312D",
"I  c #853D2C",
"U  c #8C3B2D",
"Y  c #92352B",
"T  c #9A2930",
"R  c #9C2A30",
"E  c #883E31",
"W  c #963630",
"Q  c #993630",
"!  c #A12E33",
"~  c #A62C32",
"^  c #A92E34",
"/  c #A73731",
"(  c #AB3035",
")  c #AE3035",
"_  c #B63337",
"`  c #B83237",
"'  c #B13B37",
"]  c #B83338",
"[  c #BA3439",
"{  c #BB3F3A",
"}  c #C4373B",
"|  c #C5383C",
" . c #CB3A3D",
".. c #CA3C3D",
"X. c #D43B3F",
"o. c #82432B",
"O. c #84452E",
"+. c #88412E",
"@. c #824036",
"#. c #984231",
"$. c #9D4132",
"%. c #974238",
"&. c #974B3D",
"*. c #835137",
"=. c #87523A",
"-. c #925B31",
";. c #945E39",
":. c #A24133",
">. c #A74F3A",
",. c #B34038",
"<. c #BB453D",
"1. c #A65436",
"2. c #B5573F",
"3. c #916A3B",
"4. c #AD3A40",
"5. c #AF3C42",
"6. c #B23E42",
"7. c #B83B41",
"8. c #BD3F43",
"9. c #D73E41",
"0. c #9B5147",
"q. c #AB4C42",
"w. c #AD4E43",
"e. c #BF4044",
"r. c #B64A42",
"t. c #B04944",
"y. c #AB5A45",
"u. c #AA6D4A",
"i. c #CD4447",
"p. c #C24D47",
"a. c #CA4649",
"s. c #CE4548",
"d. c #C04B4F",
"f. c #D94142",
"g. c #DC4143",
"h. c #D7474A",
"j. c #DA484B",
"k. c #D8494C",
"l. c #C04C51",
"z. c #C65253",
"x. c #C35751",
"c. c #C95556",
"v. c #C65853",
"b. c #C65A54",
"n. c #C35F55",
"m. c #D05054",
"M. c #D25556",
"N. c #DB5154",
"B. c #DC5557",
"V. c #DF585A",
"C. c #E04F50",
"Z. c #E15052",
"A. c #E15959",
"S. c #E05A5C",
"D. c #E55E5F",
"F. c #C06255",
"G. c #C5705B",
"H. c #D35E61",
"J. c #DF5F61",
"K. c #DF6063",
"L. c #E36364",
"P. c #E36566",
"I. c #E56F71",
"U. c #E77071",
/* pixels */
"< C h h h < C h h h h < C h h h < C h h h < C h h h < C h h h h ",
"  C h h h < C h h h h < C h h h < C h h h < C h h h < C h h h h ",
"< C h h h < C h h h h < C h h h < C h h h < C h h h < C h h h h ",
"  3.h h h < C h h h h   C h h h < C h h h   C h h h   C h h h h ",
"  C h h h   C h h h h   C h h h   C h h h < C h h h < C h h h h ",
"  C h h h < S h h g f   h < < <   S h h h   S h h 0 > S h h h h ",
"  3.h h h   S h g ; a     < 5 7 K 1.M h h   S h 0 P J -.h h h h ",
"  3.h h h   3.h d = f   < ;.W } h.A.x.*.h   h < 8 T ~ <.M h h h ",
"  3.h h h . z d d f h   S O._ j.m.z.l.t.#.1   < 5 F H [ :.h h h ",
"  3.h g d O v p p d f   3.I | s.5.! R _ 9.Y < 3.h 5 6 >.o.h h h ",
"  3.g d p X 3.h j p p O b @. .) H 6.d.a.j.%.3.C h h   3.h h h h ",
"  3.j f h   3.h h g d @ k y [ ] 7.M.L.S.B.0.3.h h h   3.h h h h ",
"  3.h h h   3.h h j f   D w _ 9.h.Z.B.P.v.n 3.h h h   3.h h h h ",
"  h < < <   3.h h h h   3.q Q | X.g.k.b.=.  3.h h h   3.h h h h ",
"    < <     3.h h h h   3.h q Q ` s.p.o.h   3.h h h   3.h h h h ",
"  < 3.h <   3.h h h h   3.h h q 6 y.=.h h   3.h h h   3.h h h h ",
"  C C h h   h < < < <   3.h h h   3.h h h   3.h h h   3.h h h h ",
"< 3.h h h     < < <     3.h h h   3.h h h   3.h h h   3.h h h h ",
"  3.h h h   < 3.C h <   3.h h h   3.h h h   3.h h h   h < < < < ",
"  3.h h h   3.C h h h   3.h h g O Z < < <   3.h h h     < < <   ",
"  3.h h h   3.h h h h   3.h g ; o + < <   , 2.#.#.M   < 3.C h < ",
"  3.h h h   3.h h h h   3.h d - o $ 3.h 9 / g.9.9.{ E u.C h h h ",
"  3.h h h   3.h h h h   3.h d - & A C m r.k.g.9.9.j.J.G.h h h h ",
"  3.h h h   3.h h h h   3.h d = X 3.m ,.k.B.C.9. .e.l.n.*.h h h ",
"  3.h h h   3.h h h h . Z g ; = O b @.9.9.N.D. .) R H 6.&.h h h ",
"  3.h h h < 3.h h g d # s d p : & k i 9.9.h.Z.i.d.d.4.! L h h h ",
"  3.h h h   V d d d p @ l f h j X V u [ | X.f.B.U.U.H.q.r h h h ",
"  C h h h 3 b p p p d 4 S h h h   3.t R ^ } f.k.V.L.I.F.q h h h ",
"< 3.h h h 2 c h h d - + S h h h < S q P R _ f.9.9.k.K.c.L h h h ",
"  C h h h < S h h j : * B h h h   S h q P ~ ..9.9. .8.w.r h h h ",
"< C h h h < C h h h j % x h h h < C h h q G ( | 9.' e N h h h h ",
"< C h h h < C h h h h < C h h h < C h h h 5 +.U $.o.< C h h h h "
};
