/* XPM */
static char *cc75cd4d47c44faac08bb816cc4fe1fa59NRCghEeQcO7lwr[] = {
/* columns rows colors chars-per-pixel */
"32 32 23 1 ",
"  c white",
". c #E6E6E6",
"X c None",
"o c gray81",
"O c #E6E6E6",
"+ c #C8A3A3",
"@ c #9D9BA8",
"# c #202020",
"$ c #202020",
"% c #202020",
"& c #202020",
"* c #202020",
"= c #202020",
"- c #202020",
"; c #202020",
": c #202020",
"> c #202020",
", c #202020",
"< c #1A1C1A",
"1 c black",
"2 c #E6E6E6",
"3 c gray74",
"4 c white",
/* pixels */
"       <   <<123<2<1  <<   <    ",
"                                ",
"                                ",
"                XXX             ",
"           ...XXoooXX....       ",
"           ..XooOOOooX...       ",
"           .XoOOOOOOOoX..       ",
"           .XoOOOOOOOoX..       ",
"           XoOOOOOOOOOoX.       ",
"           XoOooOOOooOoX.       ",
"           XoXXooOooXXoX.       ",
"           XoX+XXoXX+XoX.       ",
"          XoOX+++X+++XOoX       ",
"          XoOX+X+++X+XOoX       ",
"          XoOOX++X++XOOoX       ",
"          XoOOOXXOXXOOOoX       ",
"          XoOXOOOOOOOXOoX       ",
"          XoX@XOXOXOX@XoX       ",
"         XoOX@@X@X@X@@XOoX      ",
"         XoOX@@@@@@@@@XOoX      ",
"         XoOOX@@@X@@@XoOoX      ",
"         XoOOOXXXOXXXoOOoX      ",
"         XoOooOOOooOOOoooX      ",
"         XooXXoOoXXoOoXXoX      ",
"         XoX  XoX  XoX  X       ",
"          X    X    X           ",
"          #$%&*=-;-=*&%$#       ",
"         :>;;;;;;;;;;;;;>:      ",
"         ,;;;;;;;;;;;;;;;,      ",
"         :>;;;;;;;;;;;;;>:      ",
"          #$%&*=-;-=*&%$#       ",
"                                "
};
