/* XPM */
static char *_51c36a526cd4b4e9cc4146681458824CsNR5CFf83Jz2XXR[] = {
/* columns rows colors chars-per-pixel */
"32 32 19 1 ",
"  c None",
". c None",
"X c None",
"o c gray81",
"O c #E6E6E6",
"+ c #C8A3A3",
"@ c #9D9BA8",
"# c #202020",
"$ c #202020",
"% c #202020",
"& c #202020",
"* c #202020",
"= c #202020",
"- c #202020",
"; c #202020",
": c #202020",
"> c #202020",
", c #202020",
"< c None",
/* pixels */
"                                ",
"              XXX               ",
"         ...XXoooXX....         ",
"         ..XooOOOooX...         ",
"         .XoOOOOOOOoX..         ",
"         .XoOOOOOOOoX..         ",
"         XoOOOOOOOOOoX.         ",
"         XoOooOOOooOoX.         ",
"         XoXXooOooXXoX.         ",
"         XoX+XXoXX+XoX.         ",
"        XoOX+++X+++XOoX         ",
"        XoOX+X+++X+XOoX         ",
"        XoOOX++X++XOOoX         ",
"        XoOOOXXOXXOOOoX         ",
"        XoOXOOOOOOOXOoX         ",
"        XoX@XOXOXOX@XoX         ",
"       XoOX@@X@X@X@@XOoX        ",
"       XoOX@@@@@@@@@XOoX        ",
"       XoOOX@@@X@@@XoOoX        ",
"       XoOOOXXXOXXXoOOoX        ",
"       XoOooOOOooOOOoooX        ",
"       XooXXoOoXXoOoXXoX        ",
"       XoX  XoX  XoX  X         ",
"        X    X    X             ",
"        #$%&*=-;-=*&%$#         ",
"       :>;;;;;;;;;;;;;>:        ",
"       ,;;;;;;;;;;;;;;;,        ",
"       :>;;;;;;;;;;;;;>:        ",
"        #$%&*=-;-=*&%$#         ",
"                                ",
"                                ",
"                                "
};
