/* XPM */
static char *_e43f578b2964f50a15f0c83739ad84a[] = {
/* columns rows colors chars-per-pixel */
"32 32 52 1 ",
"  c None",
". c #1C080F",
"X c #1D080F",
"o c #1C090F",
"O c #1E0A10",
"+ c #1E0A11",
"@ c #210E14",
"# c #210E15",
"$ c #220F16",
"% c #25131A",
"& c #382931",
"* c #3B2D35",
"= c #3D2F38",
"- c #3C3038",
"; c #3F323A",
": c #40333C",
"> c #40363E",
", c #40363F",
"< c #42363E",
"1 c #433942",
"2 c #433A43",
"3 c #463D45",
"4 c #4A424A",
"5 c #4D414B",
"6 c #534B55",
"7 c #59545E",
"8 c #5E5C66",
"9 c #605963",
"0 c #66606A",
"q c #6A6570",
"w c #74707C",
"e c #77737F",
"r c #797682",
"t c #767A86",
"y c #7A7D89",
"u c #7E7F8B",
"i c #898D99",
"p c #8C93A0",
"a c #8E95A2",
"s c #8E97A3",
"d c #8E9AA6",
"f c #919DA9",
"g c #919EAA",
"h c #9BA2AF",
"j c #95A3B0",
"k c #97A5B2",
"l c #9CA3B0",
"z c #ABBCCA",
"x c #ACBECC",
"c c #ACBFCD",
"v c #B7CEDD",
"b c #B8CFDE",
/* pixels */
"                                ",
"                                ",
"                                ",
"                                ",
"                                ",
"                                ",
"                                ",
"                                ",
"                    ####        ",
"                    23>*        ",
"                  .2ypu0*.      ",
"                  *6upuq5*      ",
"      %##########;0q63:5q0*#    ",
"      ##&;===;;;=6uy2.#;rr:#    ",
"      #&9eeeeeeeeuis  .;rr:#    ",
"      #:ullllsueeuph  .:ee:#    ",
"      #3izzzzs7==7sc  .:ee:#    ",
"      #3szjjzk4.#3dv  .:uu>#    ",
"      #3dj88jc  .3db  .3pp3#    ",
"      #3dk4;ts  +2tg  47uy2#    ",
"      #3dc  >4    >7gcku7>      ",
"      #2ts  +#    .>tddy>.      ",
"        24          2332        ",
"        ##          ####        ",
"                                ",
"                                ",
"                                ",
"                                ",
"                                ",
"                                ",
"                                ",
"                                "
};
