/* XPM */
static char *Dungeon_Tileset_resized[] = {
/* columns rows colors chars-per-pixel */
"32 32 133 2 ",
"   c None",
".  c #1F0F18",
"X  c #201018",
"o  c #211018",
"O  c #211119",
"+  c #221118",
"@  c #221119",
"#  c #231119",
"$  c #231219",
"%  c #241219",
"&  c #24121A",
"*  c #24131A",
"=  c #25131A",
"-  c #2A171C",
";  c #2D181C",
":  c #311D23",
">  c #361F21",
",  c #372022",
"<  c #3A2223",
"1  c #3B2323",
"2  c #392124",
"3  c #3C2324",
"4  c #3C2424",
"5  c #3D2424",
"6  c #402322",
"7  c #422422",
"8  c #412625",
"9  c #422625",
"0  c #482825",
"q  c #492825",
"w  c #492925",
"e  c #4A2925",
"r  c #4B2925",
"t  c #4B2A26",
"y  c #442B2B",
"u  c #452B2B",
"i  c #503637",
"p  c #5B3933",
"a  c #5D3B32",
"s  c #5C3C37",
"d  c #553939",
"f  c #563A39",
"g  c #664339",
"h  c #6F4638",
"j  c #6F483A",
"k  c #7F4836",
"l  c #704739",
"z  c #704839",
"x  c #70483A",
"c  c #71493B",
"v  c #72493B",
"b  c #724A3C",
"n  c #744C3D",
"m  c #784E3F",
"M  c #7D4E3C",
"N  c #7F4F3D",
"B  c #5F4240",
"V  c #5F4241",
"C  c #604443",
"Z  c #795040",
"A  c #7B5041",
"S  c #7B5142",
"D  c #7E5545",
"F  c #7C594F",
"G  c #92563E",
"H  c #95573F",
"J  c #9B583E",
"K  c #9B593F",
"L  c #9C593F",
"P  c #875742",
"I  c #875843",
"U  c #875943",
"Y  c #885842",
"T  c #885843",
"R  c #885943",
"E  c #8C5B44",
"W  c #8D5B44",
"Q  c #8C5B45",
"!  c #8D5C45",
"~  c #8D5D47",
"^  c #8E5D47",
"/  c #9B5A41",
"(  c #976047",
")  c #996147",
"_  c #996148",
"`  c #9B6248",
"'  c #9B6249",
"]  c #98654E",
"[  c #9A664E",
"{  c #816359",
"}  c #8F695B",
"|  c #8C6B5F",
" . c #986650",
".. c #996751",
"X. c #9A6653",
"o. c #916857",
"O. c #916858",
"+. c #9E6E5C",
"@. c #B26B4B",
"#. c #B46A49",
"$. c #B46B4A",
"%. c #B76C4B",
"&. c #B76D4B",
"*. c #B46C4C",
"=. c #B76E4D",
"-. c #AE735B",
";. c #B1755C",
":. c #8D6C60",
">. c #8F6E61",
",. c #957161",
"<. c #907165",
"1. c #917366",
"2. c #967567",
"3. c #937468",
"4. c #937B78",
"5. c #B57860",
"6. c #B17B64",
"7. c #B37D66",
"8. c #C26F4A",
"9. c #C1704B",
"0. c #C1714D",
"q. c #9A807B",
"w. c #9B807C",
"e. c #9A817E",
"r. c #B9826B",
"t. c #938F96",
"y. c #949097",
"u. c #A39897",
"i. c #AA9C99",
"p. c #AB9D9A",
"a. c #ABA09F",
"s. c #9FA3AA",
"d. c #A0A4AB",
/* pixels */
"            0.0.0.0.                        0.0.0.0.            ",
"            @.@.@.@.                        @.@.@.@.            ",
"            ( ( ( (                         ( ( ( (             ",
"            U R I I                         I I R U             ",
"            T T Y P                         P Y T T             ",
"            } | <.2.                        2.<.| }             ",
"= $ O r L 5.e.t.s.a.r.8.9.0.0.0.0.0.0.9.8.r.a.s.t.e.5.L r O $ = ",
"= $ @ 0 G -.q.y.d.i.6.#.$.*.*.*.*.*.*.$.#.6.i.d.y.q.-.G 0 @ $ = ",
"= $ # 8 M ] o.:.1.,. .) _ _ _ _ _ _ _ _ )  .,.1.:.o.] M 8 # $ = ",
"= & $ , a n Z S A m b j j x x x x x x j j b m A S Z n a , $ & = ",
"= * * - > u f V B d y 3 3 4 4 4 4 4 4 3 3 y d B V f u > - * * = ",
"= = = % + : i C C i : o + # # # # # # + o : i C C i : + % = = = ",
"= = = $ + 2 g D D g 2 o @ % % % % % % @ o 2 g D D g 2 + $ = = = ",
"= = = % # 5 v ^ ^ v 5 # % = = = = = = % # 5 v ^ ^ v 5 # % = = = ",
"= = = % # 5 v ^ ^ v 5 # % = = = = = = % # 5 v ^ ^ v 5 # % = = = ",
"= = = % # 5 c ~ ~ c 5 # % = = = = = = % # 5 c ~ ~ c 5 # % = = = ",
"= = = % # 5 c ~ ~ c 5 # % = = = = = = % # 5 c ~ ~ c 5 # % = = = ",
"= = = % # 5 c ~ ~ c 5 # % = = = = = = % # 5 c ~ ~ c 5 # % = = = ",
"= = = % # 5 c ~ ~ c 5 # % = = = = = = % # 5 c ~ ~ c 5 # % = = = ",
"= = = $ o 1 z ! Q l 1 X O $ $ $ $ $ $ O X 1 l Q ! z 1 o $ = = = ",
"= = = # X < l W E h < . X O O O O O O X . < h E W l < X # = = = ",
"= * & ; 6 p F >.3.{ s q e t t t t t t e q s { 3.>.F p 6 ; & * = ",
"= $ # 7 k X.4.y.d.u.+.J K / / / / / / K J +.u.d.y.4.X.k 7 # $ = ",
"= $ O w H ;.w.y.d.p.7.%.&.=.=.=.=.=.=.&.%.7.p.d.y.w.;.H w O $ = ",
"= $ @ 9 N [ O.:.1.,...` ` ' ' ' ' ' ' ` ` ..,.1.:.O.[ N 9 @ $ = ",
"= & $ , a n Z S A m b j j x x x x x x j j b m A S Z n a , $ & = ",
"= * * - > u f V B d y 3 3 4 4 4 4 4 4 3 3 y d B V f u > - * * = ",
"= = = % + : i C C i : o + # # # # # # + o : i C C i : + % = = = ",
"= = = $ + 2 g D D g 2 o @ % % % % % % @ o 2 g D D g 2 + $ = = = ",
"= = = % # 5 v ^ ^ v 5 # % = = = = = = % # 5 v ^ ^ v 5 # % = = = ",
"= = = % # 5 v ^ ^ v 5 # % = = = = = = % # 5 v ^ ^ v 5 # % = = = ",
"= = = % # 5 c ~ ~ c 5 # % = = = = = = % # 5 c ~ ~ c 5 # % = = = "
};
