/* XPM */
static char *e0f47177ec4b4e3bb3465ae25023c381lZE2wUBvCwDbxPge[] = {
/* columns rows colors chars-per-pixel */
"32 32 12 1 ",
"  c None",
". c #383636",
"X c #504C4C",
"o c black",
"O c gray8",
"+ c #753E2D",
"@ c #FFD9AD",
"# c #1C241F",
"$ c #404545",
"% c #61666B",
"& c #1A1C1A",
"* c white",
/* pixels */
"            ..XXXXX..           ",
"          ..XXXXXXXXX..         ",
"         .XXXXXXXXXX.XXXX       ",
"        .XXXXXXXXX..XXXXXX.     ",
"       .XXXXXXXX..XXXX..XXX.    ",
"       .X.XXXX.XXXXXX..XX.XX.   ",
"      .X.XXXXXX.XXXXXXXX..oo    ",
"      .X.XXXXXXX.oXXXXX..X.     ",
"      .OXX.XXXXX.+o..X..XXX.    ",
"      O.X.OXX.XXo@+o.XXX.XX.    ",
"      O.XOOXX.X.+@++o.X.o.X     ",
"       OO.OXO.Xo@@@oo.X.o o     ",
"       O...O@..o@@@@@@.@o       ",
"        O..O@o.+@@@@@oo@o       ",
"        O.O.OO.@@@@@@oo@o       ",
"         OO..O@@@@@@@@@@o       ",
"          O.OOo@@@@@@@@@o       ",
"           OOOOo@@@@@ooo        ",
"           #######Ooooo         ",
"          #ooo#o#oo#$%          ",
"         #ooooo#oooo%$          ",
"         #oooo#oooooo%#         ",
"         o$%o#oooooooo#         ",
"         o%$%oO@@@o####         ",
"         o$%$OO@@@ooo%          ",
"          o$%OO@@@ooo%          ",
"         #oooOO@@o####          ",
"         #ooooooooooo#          ",
"          ############          ",
"            o&XXX&oo            ",
"             o&&&oo             ",
"             o&XXXo             "
};
