/* XPM */
static char *_29f812a91074f8be4f94b363917b527XnS6olKOStlidBe7[] = {
/* columns rows colors chars-per-pixel */
"32 32 9 1 ",
"  c None",
". c #383636",
"X c #504C4C",
"o c black",
"O c #1C241F",
"+ c #404545",
"@ c #61666B",
"# c #1A1C1A",
"$ c white",
/* pixels */
"           .XXXXXXX.            ",
"         .XXXXXXXXXXXX          ",
"        ..XXXXXXXXXXXXXX        ",
"       .X.XXX.XXXXXXXXXXX       ",
"      .XXX.X.XXXXXXX..XXXX      ",
"      .XX.XXXX..XXXXX..oXX.     ",
"      XXXXXXXXXXXXXXX....o      ",
"     .XXXXXXXXXXXXXXXX.X..      ",
"     .XXXXXXXXXXXXXXXXX.XX.     ",
"     .XXX.XX.XXXXXXX.XX..X.     ",
"     .XXX.XXo.XXX.XXX.X.o.o     ",
"     oXXX.X...XXXo.XXo...o      ",
"     o.X.XX.X.XX.o..Xo...o      ",
"     o.X.X.XX..X..X......o      ",
"      o....XXX....XX....o       ",
"       o....X..X..X....o        ",
"      OOo.o.X.XXX.X.o.oOO       ",
"     Oooo.oo.o.X.o.oo.oooO      ",
"     ooooooOooo.oooOoooooo      ",
"    OooooooooOOOOOooooooooO     ",
"    oOOoooooooooooooooooOOo     ",
"    o+@OOoOoooooooooOoOO@+o     ",
"    o@+@+oOoooooooooOoO@+@o     ",
"    o+@+ooOOoOOOOOoOOoo+@+o     ",
"     o+@+oooOoooooOooo+@+o      ",
"      ooooooOoooooOoooooo       ",
"         oOOoOOOOOoOOo          ",
"         oOoooooooooOo          ",
"         oOOOOOOOOOOOo          ",
"         o..XX.o.XX..o          ",
"          o###o o###o           ",
"          oXXXo oXXXo           "
};
