/* XPM */
static char *_7cca884250b43bfed3f50c5971ffb785Ik1NVD9A2Re0rhv[] = {
/* columns rows colors chars-per-pixel */
"32 32 12 1 ",
"  c None",
". c black",
"X c #1A1C1A",
"o c #504C4C",
"O c #383636",
"+ c #753E2D",
"@ c gray8",
"# c #FFD9AD",
"$ c #1C241F",
"% c #61666B",
"& c #404545",
"* c white",
/* pixels */
"           .Xo.....oX.          ",
"           OOoooooOO            ",
"         OOoooooooooOO          ",
"       ooooOooooooooooO         ",
"     OooooooOOoooooooooO        ",
"    OoooOOooooOOooooooooO       ",
"   OooOooOOooooooOooooOoO       ",
"    ..OOooooooooOooooooOoO      ",
"     OoOOooooo.OoooooooOoO      ",
"    OoooOOoOO.+OoooooOoo@O      ",
"    OooOoooO.+#.ooOoo@OoO@      ",
"     oO.OoO.++#+OoOoo@@oO@      ",
"     . .OoO..###.oO@o@O@@       ",
"       .#O######.OO#@OOO@       ",
"       .#..#####+O.#@OO@        ",
"       .#..######O@@O@O@        ",
"       .##########@OO@@         ",
"       .#########.@@O@          ",
"        ...#####.@@@@           ",
"         ....@$$$$$$$           ",
"          %&$..$.$...$          ",
"          &%....$.....$         ",
"         $%......$....$         ",
"         $........$.%&.         ",
"         $$$$.###@.%&%.         ",
"          %...###@@&%&.         ",
"          %...###@@%&.          ",
"          $$$$.##@@...$         ",
"          $...........$         ",
"          $$$$$$$$$$$$          ",
"            ..XoooX.            ",
"             ..XXX.             "
};
