/* XPM */
static char *c0d76abca4bf4f54c01f3212a670ee10HMAA3j9VBXjwaCiZ[] = {
/* columns rows colors chars-per-pixel */
"32 32 11 1 ",
"  c None",
". c #383636",
"X c #504C4C",
"o c black",
"O c #753E2D",
"+ c #FFD9AD",
"@ c #1A1C1A",
"# c #61666B",
"$ c #404545",
"% c #1C241F",
"& c white",
/* pixels */
"           ...XXX...            ",
"         ..XXXXXXXXXX.          ",
"       ..XXXX..XXXXXX..         ",
"      .XXXXX..XXXXXXX.X.        ",
"     .XX...XXX.XXXXX.XXX.       ",
"    .X..oXXXXXXXXX.XX.XX.       ",
"     ..X.o...XXXXoXXXX.X.       ",
"     .XXX.XXXXX.oXXoXXX.X.      ",
"    .XXX.X...ooXXXoo.XXX..      ",
"    .XX.XXX.X.XXXoOOo.XX..      ",
"    o.o.XX.XoOXX.O++oX.X.o      ",
"     oo.X.Oo++X.O+++o....o      ",
"     o+X.O+oo+.O++oo+o.o+o      ",
"     o+Xo+++++O++++++o.o+o      ",
"      oo+++oo+++++oo++.oo       ",
"       o+++oo+o+++oo+++o        ",
"       oo+++++oo++++++oo        ",
"     @@o@o+++++++++++o@o@@      ",
"    @oooo@oo+++++++oo@oooo@     ",
"   @oooo@o@@ooooooo@@o@oooo@    ",
"   o#$oo@ooo@$#$#$@ooo@oo$#o    ",
"  o#$@@o@ooooo$#$ooooo@o@@$#o   ",
"  o$@@@+o@ooooooooooo@o+@@@$o   ",
"   @@@+++@@%%%%#%%%%@@+++@@@    ",
"   o@@+++ooooo#o#ooooo+++@@o    ",
"    o@o+oooooo#o#oooooo+o@o     ",
"     ooooo@%%%%#%%%%@ooooo      ",
"         o@ooooooooo@o          ",
"         o@@@@@@@@@@@o          ",
"         o@XXX@o@XXX@o          ",
"          ooo@o oXooo           ",
"          o@XoooooX@o           "
};
