/* XPM */
static char *_eac88003e294a7583817458be512f6f7cXHS3xqq5PXSGM8[] = {
/* columns rows colors chars-per-pixel */
"32 32 10 1 ",
"  c #5E4522",
". c #635424",
"X c #825734",
"o c #4D381C",
"O c #ABA589",
"+ c #C0B390",
"@ c #C3C1A2",
"# c #D4C8AB",
"$ c #E0DEBC",
"% c white",
/* pixels */
"   ...XXXXXXXXXXXXXXXXXXXXX.    ",
" ooooooooooooooooooooooooooooooo",
" oOOOOOOOOOOOOO oOOOOOOOOOOOOO o",
" oO++++++++++++ oO++++++++++++ o",
" oO@+++@+++@+++.oO@+++@+++@+++.o",
" oO+@+@+@+@+@+@ oO+@+@+@+@+@+@.o",
" oO@+@+@+@+@+@+.oO@+@+@+@+@+@+.o",
" oO+@+@+@+@+@+@XoO+@+@+@+@+@+@.o",
" oO@+@@@@@@@@@@XoO@+@@@@@@@@@@.o",
" oO#@#@#@#@#@#@XoO#@#@#@#@#@#@.o",
" oO@#@#@#@#@#@#XoO@#@#@#@#@#@#.o",
" oO############XoO############.o",
" oO#@#@#@#@#@#@XoO#@#@#@#@#@#@.o",
" oO############XoO############.o",
" oO@##@##@##@##XoO@##@##@##@##.o",
" oO############XoO############.o",
" oO############XoO############.o",
" oO############XoO############.o",
" oO############XoO############.o",
" oO############XoO############.o",
" oO############XoO############.o",
" oO############XoO############.o",
" oO############XoO############.o",
" oO#$$$$$$$$$$$.oO#$$$$$$$$$$$.o",
" oO############.oO############.o",
" oO#$$$$$$$$$$$ oO#$$$$$$$$$$$.o",
" oO############.oO############.o",
" oO#$$$$$$$$$$$ oO#$$$$$$$$$$$.o",
" oO#$$$$$$$$$$$ oO#$$$$$$$$$$$.o",
" oO#$$$$$$$$$$$ oO#$$$$$$$$$$$ o",
"o  . ..XXXXXXXXXXXXXXXXXX.. .  o",
"oooooooooooooooooooooooooooooooo"
};
